<?xml version="1.0" encoding="UTF-8" standalone="no"?>
<!DOCTYPE svg PUBLIC "-//W3C//DTD SVG 1.1//EN" "http://www.w3.org/Graphics/SVG/1.1/DTD/svg11.dtd">
<svg width="100%" height="100%" viewBox="0 0 800 800" version="1.1" xmlns="http://www.w3.org/2000/svg" xmlns:xlink="http://www.w3.org/1999/xlink" xml:space="preserve" xmlns:serif="http://www.serif.com/" style="fill-rule:evenodd;clip-rule:evenodd;stroke-linejoin:round;stroke-miterlimit:2;">
    <rect id="Artboard1" x="0" y="0" width="800" height="800" style="fill:none;"/>
    <g id="Artboard11" serif:id="Artboard1">
        <g transform="matrix(0.654537,0,0,0.654537,885.736,-93.9071)">
            <g transform="matrix(0.997068,-0.0149795,0.013699,0.911838,-202.892,113.914)">
                <path d="M-306.401,879.867L-465.825,879.269L-491.789,879.269L-687.49,751.396L-535.772,751.396L-502.635,751.645L-306.401,879.867ZM-480.914,751.808L-378.388,752.577L-150.691,880.45L-284.805,879.948L-480.914,751.808ZM-513.261,879.269L-623.575,879.269L-623.649,879.156L-702.157,879.156L-896.694,752.043L-850.921,751.283L-850.847,751.396L-708.961,751.396L-513.261,879.269ZM-723.628,879.156L-938.724,879.156L-1126.29,755.855L-917.634,752.39L-723.628,879.156Z" style="fill:rgb(0,55,221);"/>
            </g>
            <path d="M-249.345,985.291C-258.477,985.291 -266.875,990.296 -271.22,998.329C-275.565,1006.36 -275.157,1016.13 -270.158,1023.77C-270.158,1023.77 -270.158,1023.77 -270.157,1023.77C-266.845,1028.84 -266.575,1035.31 -269.454,1040.63C-272.332,1045.96 -277.897,1049.27 -283.948,1049.27C-402.506,1049.27 -826.528,1049.27 -826.528,1049.27C-826.528,1049.27 -830.762,1042.8 -836.569,1033.92C-843.094,1023.94 -843.627,1011.19 -837.955,1000.71C-832.283,990.218 -821.319,983.683 -809.397,983.683C-772.596,983.683 -732.493,983.683 -732.493,983.683L-773.438,925.255L-750.844,925.255L-772.756,893.986L-252.372,893.986C-226.285,893.986 -201.837,906.707 -186.865,928.071C-183.611,932.716 -180.448,937.228 -177.698,941.152C-175.948,943.65 -175.733,946.914 -177.141,949.619C-178.549,952.324 -181.345,954.022 -184.395,954.022L-184.398,954.022C-185.732,954.022 -186.956,954.764 -187.572,955.948C-188.188,957.132 -188.094,958.56 -187.328,959.653C-186.473,960.873 -185.52,962.234 -184.511,963.674C-181.571,967.869 -181.21,973.351 -183.574,977.896C-185.939,982.44 -190.636,985.291 -195.759,985.291C-211.27,985.291 -231.312,985.291 -249.345,985.291Z" style="fill:rgb(89,144,12);"/>
            <g transform="matrix(1,0,0,1,-87.0457,51.1651)">
                <g transform="matrix(-1,0,0,1,-18.1575,188.225)">
                    <g transform="matrix(1.15676,0,0,1.02276,-74.3895,-25.4468)">
                        <path d="M292.111,252.081C318.715,262.272 364.025,249.777 378.35,279.698C393.316,310.961 408.421,333.512 404.576,371.507C403.589,381.251 409.287,414.255 402.879,436.359C398.218,452.439 381.035,458.508 380.079,466.373C377.831,484.864 359.33,487.741 338.649,487.07C321.1,486.5 301.668,479.217 287.906,483.153C261.521,490.698 231.089,484.936 221.905,474.324C196.692,445.192 165.276,390.79 179.222,370.524C191.959,352.017 190.593,326.878 198.635,313.873C208.956,297.181 221.88,292.407 230.642,277.317C241.706,258.261 275.019,245.534 292.111,252.081Z" style="fill:rgb(82,137,0);"/>
                    </g>
                    <g transform="matrix(1,0,0,1,-0.0549369,-1.01966)">
                        <path d="M230.119,499.515C230.119,499.515 208.443,459.291 204.175,451.37C203.775,450.627 204.052,449.7 204.795,449.3C207.362,447.917 212.932,444.915 215.499,443.532C216.242,443.132 217.169,443.409 217.569,444.152C221.234,450.954 237.772,481.644 243.338,491.974C244.468,494.071 246.659,495.379 249.041,495.379C249.042,495.379 249.042,495.379 249.043,495.379C250.076,495.379 251.067,494.969 251.798,494.238C252.529,493.507 252.939,492.516 252.939,491.483C252.939,479.73 252.939,444.962 252.939,437.247C252.939,436.403 253.623,435.719 254.467,435.719C256.928,435.719 261.741,435.719 264.201,435.719C264.607,435.719 264.995,435.88 265.282,436.166C265.568,436.453 265.729,436.842 265.729,437.247C265.729,445.402 265.729,483.786 265.729,493.261C265.729,493.447 265.862,493.607 266.046,493.64C266.229,493.673 266.41,493.571 266.476,493.396C269.994,484.049 284.883,444.496 287.898,436.486C288.193,435.701 289.066,435.301 289.854,435.59C292.497,436.56 298.138,438.63 300.79,439.603C301.17,439.743 301.48,440.028 301.65,440.396C301.82,440.763 301.838,441.184 301.698,441.564C298.505,450.264 281.871,495.595 281.871,495.595C281.871,495.595 269.417,530.509 268.689,542.718C268.689,542.718 268.689,542.718 268.688,542.718C268.647,542.718 268.613,542.751 268.613,542.793C268.613,544.748 266.486,570.456 268.613,584.31C268.615,584.32 268.642,584.31 268.642,584.31L281.87,664.058L228.956,664.058L242.185,584.31C242.185,584.31 242.212,584.32 242.213,584.31C243.278,575.807 243.323,552.441 242.213,542.718C242.213,542.717 242.213,542.718 242.212,542.718C242.207,542.718 242.203,542.715 242.202,542.71C242.023,542.069 230.119,499.515 230.119,499.515Z" style="fill:rgb(117,78,0);"/>
                    </g>
                    <g transform="matrix(0.515788,0.0266756,-0.0270996,0.523984,162.909,132.081)">
                        <circle cx="140.457" cy="240.474" r="27.919" style="fill:rgb(252,128,11);"/>
                    </g>
                    <g transform="matrix(0.348594,0,0,0.35874,328.578,242.804)">
                        <circle cx="140.457" cy="240.474" r="27.919" style="fill:rgb(252,128,11);"/>
                    </g>
                    <g transform="matrix(0.466668,0,0,0.470658,128.896,475.244)">
                        <circle cx="140.457" cy="240.474" r="27.919" style="fill:rgb(252,128,11);"/>
                    </g>
                    <g transform="matrix(0.349578,0,0,0.355803,154.629,293.106)">
                        <circle cx="140.457" cy="240.474" r="27.919" style="fill:rgb(252,128,11);"/>
                    </g>
                    <g transform="matrix(0.398114,-4.84129e-19,0,0.398665,117.047,325.494)">
                        <circle cx="140.457" cy="240.474" r="27.919" style="fill:rgb(252,128,11);"/>
                    </g>
                    <g transform="matrix(0.369754,0,0,0.349037,107.073,274.338)">
                        <circle cx="140.457" cy="240.474" r="27.919" style="fill:rgb(252,128,11);"/>
                    </g>
                    <g>
                        <g transform="matrix(-0.0350428,0.151634,-0.274711,-0.0634861,154.286,402.656)">
                            <path d="M176.226,-185.053C176.226,-185.053 197.169,-148.537 216.721,-114.446C237.67,-77.92 236.281,-35.841 212.951,-0.225C194.571,27.834 176.226,55.84 176.226,55.84C176.226,55.84 157.881,27.834 139.501,-0.225C116.171,-35.841 114.782,-77.92 135.73,-114.446C155.283,-148.537 176.226,-185.053 176.226,-185.053Z" style="fill:rgb(89,144,12);"/>
                        </g>
                        <g transform="matrix(0.0740046,-0.10052,0.206224,0.151826,257.596,457.912)">
                            <path d="M176.226,-185.053C176.226,-185.053 197.169,-148.537 216.721,-114.446C237.67,-77.92 236.281,-35.841 212.951,-0.225C194.571,27.834 176.226,55.84 176.226,55.84C176.226,55.84 157.881,27.834 139.501,-0.225C116.171,-35.841 114.782,-77.92 135.73,-114.446C155.283,-148.537 176.226,-185.053 176.226,-185.053Z" style="fill:rgb(89,144,12);"/>
                        </g>
                        <g transform="matrix(-0.153309,0.0533993,-0.0840749,-0.241379,254.166,399.454)">
                            <path d="M176.226,-185.053C176.226,-185.053 197.169,-148.537 216.721,-114.446C237.67,-77.92 226.532,-46.549 203.202,-10.932C184.822,17.127 176.226,55.84 176.226,55.84C176.226,55.84 157.881,27.834 139.501,-0.225C116.171,-35.841 114.782,-77.92 135.73,-114.446C155.283,-148.537 176.226,-185.053 176.226,-185.053Z" style="fill:rgb(89,144,12);"/>
                        </g>
                        <g transform="matrix(-0.0971455,0.171861,-0.296703,-0.167713,381.815,361.439)">
                            <path d="M176.226,-185.053C176.226,-185.053 197.169,-148.537 216.721,-114.446C237.67,-77.92 236.281,-35.841 212.951,-0.225C194.571,27.834 176.226,55.84 176.226,55.84C176.226,55.84 157.881,27.834 139.501,-0.225C116.171,-35.841 114.782,-77.92 135.73,-114.446C155.283,-148.537 176.226,-185.053 176.226,-185.053Z" style="fill:rgb(89,144,12);"/>
                        </g>
                        <g transform="matrix(0.0935036,0.162011,-0.295187,0.170366,293.19,243.14)">
                            <path d="M176.226,-185.053C176.226,-185.053 197.169,-148.537 216.721,-114.446C237.67,-77.92 236.281,-35.841 212.951,-0.225C194.571,27.834 176.226,55.84 176.226,55.84C176.226,55.84 157.881,27.834 139.501,-0.225C116.171,-35.841 114.782,-77.92 135.73,-114.446C155.283,-148.537 176.226,-185.053 176.226,-185.053Z" style="fill:rgb(89,144,12);"/>
                        </g>
                        <g transform="matrix(0.0464084,0.119598,-0.225181,0.0873782,339.186,324.893)">
                            <path d="M173.814,-158.007C173.814,-158.007 197.169,-148.537 216.721,-114.446C237.67,-77.92 236.281,-35.841 212.951,-0.225C194.571,27.834 176.226,55.84 176.226,55.84C176.226,55.84 157.881,27.834 139.501,-0.225C116.171,-35.841 114.782,-77.92 135.73,-114.446C155.283,-148.537 173.814,-158.007 173.814,-158.007Z" style="fill:rgb(89,144,12);"/>
                        </g>
                        <g transform="matrix(0.117474,-0.0857913,0.149419,0.204599,145.459,355.537)">
                            <path d="M176.226,-185.053C176.226,-185.053 197.169,-148.537 216.721,-114.446C237.67,-77.92 236.281,-35.841 212.951,-0.225C194.571,27.834 176.226,55.84 176.226,55.84C176.226,55.84 157.881,27.834 139.501,-0.225C116.171,-35.841 132.153,-65.881 153.102,-102.407C172.654,-136.498 176.226,-185.053 176.226,-185.053Z" style="fill:rgb(89,144,12);"/>
                        </g>
                        <g transform="matrix(-0.13845,-0.0128228,0.0297646,-0.321376,231.607,339.628)">
                            <path d="M176.226,-185.053C176.226,-185.053 197.169,-148.537 216.721,-114.446C237.67,-77.92 236.281,-35.841 212.951,-0.225C194.571,27.834 176.226,55.84 176.226,55.84C176.226,55.84 157.881,27.834 139.501,-0.225C116.171,-35.841 114.782,-77.92 135.73,-114.446C155.283,-148.537 176.226,-185.053 176.226,-185.053Z" style="fill:rgb(89,144,12);"/>
                        </g>
                        <g transform="matrix(0.139034,-0.00155503,0.00360958,0.322731,209.195,325.397)">
                            <path d="M176.226,-185.053C176.226,-185.053 197.169,-148.537 216.721,-114.446C237.67,-77.92 236.281,-35.841 212.951,-0.225C194.571,27.834 176.226,55.84 176.226,55.84C176.226,55.84 157.881,27.834 139.501,-0.225C116.171,-35.841 114.782,-77.92 135.73,-114.446C155.283,-148.537 176.226,-185.053 176.226,-185.053Z" style="fill:rgb(89,144,12);"/>
                        </g>
                        <g transform="matrix(-0.105684,0.127913,-0.222284,-0.183655,141.621,341.801)">
                            <path d="M176.226,-185.053C176.226,-185.053 197.169,-148.537 216.721,-114.446C237.67,-77.92 236.281,-35.841 212.951,-0.225C194.571,27.834 176.226,55.84 176.226,55.84C176.226,55.84 145.166,32.837 139.501,-0.225C135.044,-26.238 139.584,-75.756 156.573,-114.296C172.426,-150.257 176.226,-185.053 176.226,-185.053Z" style="fill:rgb(89,144,12);"/>
                        </g>
                        <g transform="matrix(-0.165468,0.0122961,-0.0213677,-0.287546,240.003,235.472)">
                            <path d="M176.226,-185.053C176.226,-185.053 197.169,-148.537 216.721,-114.446C237.67,-77.92 236.281,-35.841 212.951,-0.225C194.571,27.834 176.226,55.84 176.226,55.84C176.226,55.84 145.166,32.837 139.501,-0.225C135.044,-26.238 139.584,-75.756 156.573,-114.296C172.426,-150.257 176.226,-185.053 176.226,-185.053Z" style="fill:rgb(89,144,12);"/>
                        </g>
                        <g transform="matrix(-0.138504,0.0913658,-0.158773,-0.240687,201.403,367.422)">
                            <path d="M176.226,-185.053C176.226,-185.053 197.169,-148.537 216.721,-114.446C237.67,-77.92 236.281,-35.841 212.951,-0.225C194.571,27.834 176.226,55.84 176.226,55.84C176.226,55.84 145.166,32.837 139.501,-0.225C135.044,-26.238 139.584,-75.756 156.573,-114.296C172.426,-150.257 176.226,-185.053 176.226,-185.053Z" style="fill:rgb(89,144,12);"/>
                        </g>
                        <g transform="matrix(-0.163242,-0.09425,0.170308,-0.294977,306.76,328.028)">
                            <path d="M176.226,-185.053C176.226,-185.053 197.169,-148.537 216.721,-114.446C237.67,-77.92 236.281,-35.841 212.951,-0.225C194.571,27.834 176.226,55.84 176.226,55.84C176.226,55.84 145.166,32.837 139.501,-0.225C135.044,-26.238 139.584,-75.756 156.573,-114.296C172.426,-150.257 176.226,-185.053 176.226,-185.053Z" style="fill:rgb(89,144,12);"/>
                        </g>
                        <g transform="matrix(-0.138504,0.0913658,-0.158773,-0.240687,192.994,254.292)">
                            <path d="M176.226,-185.053C176.226,-185.053 197.169,-148.537 216.721,-114.446C237.67,-77.92 236.281,-35.841 212.951,-0.225C194.571,27.834 176.226,55.84 176.226,55.84C176.226,55.84 145.166,32.837 139.501,-0.225C135.044,-26.238 139.584,-75.756 156.573,-114.296C172.426,-150.257 176.226,-185.053 176.226,-185.053Z" style="fill:rgb(89,144,12);"/>
                        </g>
                        <g transform="matrix(-0.239272,0.157839,-0.160237,-0.242907,296.303,207.134)">
                            <path d="M176.226,-185.053C176.226,-185.053 197.169,-148.537 216.721,-114.446C237.67,-77.92 236.281,-35.841 212.951,-0.225C194.571,27.834 176.226,55.84 176.226,55.84C176.226,55.84 145.166,32.837 139.501,-0.225C135.044,-26.238 139.584,-75.756 156.573,-114.296C172.426,-150.257 176.226,-185.053 176.226,-185.053Z" style="fill:rgb(89,144,12);"/>
                        </g>
                        <g transform="matrix(-0.194282,0.100423,-0.132399,-0.256144,338.292,355.576)">
                            <path d="M176.226,-185.053C176.226,-185.053 197.169,-148.537 216.721,-114.446C237.67,-77.92 236.281,-35.841 212.951,-0.225C194.571,27.834 176.226,55.84 176.226,55.84C176.226,55.84 145.166,32.837 139.501,-0.225C135.044,-26.238 139.584,-75.756 156.573,-114.296C172.426,-150.257 176.226,-185.053 176.226,-185.053Z" style="fill:rgb(89,144,12);"/>
                        </g>
                        <g transform="matrix(-0.20211,0.0661465,-0.0896861,-0.274036,354.456,303.928)">
                            <path d="M176.226,-185.053C176.226,-185.053 197.169,-148.537 216.721,-114.446C237.67,-77.92 236.281,-35.841 212.951,-0.225C194.571,27.834 176.226,55.84 176.226,55.84C176.226,55.84 145.166,32.837 139.501,-0.225C135.044,-26.238 139.584,-75.756 156.573,-114.296C172.426,-150.257 176.226,-185.053 176.226,-185.053Z" style="fill:rgb(89,144,12);"/>
                        </g>
                        <g transform="matrix(-0.138504,0.0913658,-0.158773,-0.240687,344.267,428.821)">
                            <path d="M176.226,-185.053C176.226,-185.053 197.169,-148.537 216.721,-114.446C237.67,-77.92 236.281,-35.841 212.951,-0.225C194.571,27.834 176.226,55.84 176.226,55.84C176.226,55.84 145.166,32.837 139.501,-0.225C135.044,-26.238 139.584,-75.756 156.573,-114.296C172.426,-150.257 176.226,-185.053 176.226,-185.053Z" style="fill:rgb(89,144,12);"/>
                        </g>
                        <g transform="matrix(-0.138504,0.0913658,-0.158773,-0.240687,375.212,402.174)">
                            <path d="M176.226,-185.053C176.226,-185.053 197.169,-148.537 216.721,-114.446C237.67,-77.92 236.281,-35.841 212.951,-0.225C194.571,27.834 176.226,55.84 176.226,55.84C176.226,55.84 145.166,32.837 139.501,-0.225C135.044,-26.238 139.584,-75.756 156.573,-114.296C172.426,-150.257 176.226,-185.053 176.226,-185.053Z" style="fill:rgb(89,144,12);"/>
                        </g>
                        <g transform="matrix(-0.159971,-0.0440493,0.0765475,-0.277992,391.098,284.459)">
                            <path d="M176.226,-185.053C176.226,-185.053 197.169,-148.537 216.721,-114.446C237.67,-77.92 236.281,-35.841 212.951,-0.225C194.571,27.834 176.226,55.84 176.226,55.84C176.226,55.84 145.166,32.837 139.501,-0.225C135.044,-26.238 139.584,-75.756 156.573,-114.296C172.426,-150.257 176.226,-185.053 176.226,-185.053Z" style="fill:rgb(89,144,12);"/>
                        </g>
                    </g>
                    <g transform="matrix(0.337806,0,0,0.302764,143.366,669.667)">
                        <circle cx="140.457" cy="240.474" r="27.919" style="fill:rgb(252,128,11);"/>
                    </g>
                    <g transform="matrix(0.404954,-0.00781858,0.00806933,0.417942,224.326,223.866)">
                        <circle cx="140.457" cy="240.474" r="27.919" style="fill:rgb(252,128,11);"/>
                    </g>
                    <g transform="matrix(0.440042,0,0,0.449715,175.698,330.866)">
                        <circle cx="140.457" cy="240.474" r="27.919" style="fill:rgb(252,128,11);"/>
                    </g>
                    <g transform="matrix(0.458469,0,0,0.451274,112.807,179.062)">
                        <circle cx="140.457" cy="240.474" r="27.919" style="fill:rgb(252,128,11);"/>
                    </g>
                    <g transform="matrix(0.435101,0.00611615,-0.00554987,0.394816,248.895,167.378)">
                        <circle cx="140.457" cy="240.474" r="27.919" style="fill:rgb(252,128,11);"/>
                    </g>
                    <g transform="matrix(0.493764,0,0,0.48064,227.897,286.361)">
                        <circle cx="140.457" cy="240.474" r="27.919" style="fill:rgb(252,128,11);"/>
                    </g>
                    <g transform="matrix(0.480455,0,0,0.471317,148.053,208.599)">
                        <circle cx="140.457" cy="240.474" r="27.919" style="fill:rgb(252,128,11);"/>
                    </g>
                    <g transform="matrix(0.48427,0,0,0.450777,265.973,201.265)">
                        <circle cx="140.457" cy="240.474" r="27.919" style="fill:rgb(252,128,11);"/>
                    </g>
                    <g transform="matrix(0.4573,0,0,0.448585,191.733,268.185)">
                        <circle cx="140.457" cy="240.474" r="27.919" style="fill:rgb(252,128,11);"/>
                    </g>
                    <g transform="matrix(0.452457,-0.0673333,0.0544307,0.365756,138.322,703.256)">
                        <circle cx="140.457" cy="240.474" r="27.919" style="fill:rgb(252,128,11);"/>
                    </g>
                </g>
                <g transform="matrix(1,0,0,1,-897.558,188.225)">
                    <g transform="matrix(1.15676,0,0,1.02276,-74.3895,-25.4468)">
                        <path d="M292.111,252.081C318.715,262.272 364.025,249.777 378.35,279.698C393.316,310.961 408.421,333.512 404.576,371.507C403.589,381.251 409.287,414.255 402.879,436.359C398.218,452.439 381.035,458.508 380.079,466.373C377.831,484.864 359.33,487.741 338.649,487.07C321.1,486.5 301.668,479.217 287.906,483.153C261.521,490.698 231.089,484.936 221.905,474.324C196.692,445.192 165.276,390.79 179.222,370.524C191.959,352.017 190.593,326.878 198.635,313.873C208.956,297.181 221.88,292.407 230.642,277.317C241.706,258.261 275.019,245.534 292.111,252.081Z" style="fill:rgb(82,137,0);"/>
                    </g>
                    <g transform="matrix(1,0,0,1,-0.0549369,-1.01966)">
                        <path d="M230.119,499.515C230.119,499.515 208.443,459.291 204.175,451.37C203.775,450.627 204.052,449.7 204.795,449.3C207.362,447.917 212.932,444.915 215.499,443.532C216.242,443.132 217.169,443.409 217.569,444.152C221.234,450.954 237.772,481.644 243.338,491.974C244.468,494.071 246.659,495.379 249.041,495.379C249.042,495.379 249.042,495.379 249.043,495.379C250.076,495.379 251.067,494.969 251.798,494.238C252.529,493.507 252.939,492.516 252.939,491.483C252.939,479.73 252.939,444.962 252.939,437.247C252.939,436.403 253.623,435.719 254.467,435.719C256.928,435.719 261.741,435.719 264.201,435.719C264.607,435.719 264.995,435.88 265.282,436.166C265.568,436.453 265.729,436.842 265.729,437.247C265.729,445.402 265.729,483.786 265.729,493.261C265.729,493.447 265.862,493.607 266.046,493.64C266.229,493.673 266.41,493.571 266.476,493.396C269.994,484.049 284.883,444.496 287.898,436.486C288.193,435.701 289.066,435.301 289.854,435.59C292.497,436.56 298.138,438.63 300.79,439.603C301.17,439.743 301.48,440.028 301.65,440.396C301.82,440.763 301.838,441.184 301.698,441.564C298.505,450.264 281.871,495.595 281.871,495.595C281.871,495.595 269.417,530.509 268.689,542.718C268.689,542.718 268.689,542.718 268.688,542.718C268.647,542.718 268.613,542.751 268.613,542.793C268.613,544.748 266.486,570.456 268.613,584.31C268.615,584.32 268.642,584.31 268.642,584.31L281.87,664.058L228.956,664.058L242.185,584.31C242.185,584.31 242.212,584.32 242.213,584.31C243.278,575.807 243.323,552.441 242.213,542.718C242.213,542.717 242.213,542.718 242.212,542.718C242.207,542.718 242.203,542.715 242.202,542.71C242.023,542.069 230.119,499.515 230.119,499.515Z" style="fill:rgb(117,78,0);"/>
                    </g>
                    <g transform="matrix(0.349736,0.0110596,-0.0102752,0.324932,186.788,180.953)">
                        <circle cx="140.457" cy="240.474" r="27.919" style="fill:rgb(252,128,11);"/>
                    </g>
                    <g transform="matrix(0.865011,0,0,0.819945,264.805,153.945)">
                        <circle cx="140.457" cy="240.474" r="27.919" style="fill:rgb(252,128,11);"/>
                    </g>
                    <g transform="matrix(0.230683,-0.122969,0.111438,0.209051,239.441,396.142)">
                        <circle cx="140.457" cy="240.474" r="27.919" style="fill:rgb(252,128,11);"/>
                    </g>
                    <g transform="matrix(0.418145,0,0,0.36384,118.004,317.331)">
                        <circle cx="140.457" cy="240.474" r="27.919" style="fill:rgb(252,128,11);"/>
                    </g>
                    <g transform="matrix(0.415501,-0.0088341,0.00871614,0.409953,238.769,163.226)">
                        <circle cx="140.457" cy="240.474" r="27.919" style="fill:rgb(252,128,11);"/>
                    </g>
                    <g transform="matrix(0.486916,-0.0285958,0.025936,0.441627,70.6208,262.602)">
                        <circle cx="140.457" cy="240.474" r="27.919" style="fill:rgb(252,128,11);"/>
                    </g>
                    <g>
                        <g transform="matrix(-0.0350428,0.151634,-0.274711,-0.0634861,154.286,402.656)">
                            <path d="M176.226,-185.053C176.226,-185.053 197.169,-148.537 216.721,-114.446C237.67,-77.92 236.281,-35.841 212.951,-0.225C194.571,27.834 176.226,55.84 176.226,55.84C176.226,55.84 157.881,27.834 139.501,-0.225C116.171,-35.841 114.782,-77.92 135.73,-114.446C155.283,-148.537 176.226,-185.053 176.226,-185.053Z" style="fill:rgb(89,144,12);"/>
                        </g>
                        <g transform="matrix(0.0740046,-0.10052,0.206224,0.151826,257.596,457.912)">
                            <path d="M176.226,-185.053C176.226,-185.053 197.169,-148.537 216.721,-114.446C237.67,-77.92 236.281,-35.841 212.951,-0.225C194.571,27.834 176.226,55.84 176.226,55.84C176.226,55.84 157.881,27.834 139.501,-0.225C116.171,-35.841 114.782,-77.92 135.73,-114.446C155.283,-148.537 176.226,-185.053 176.226,-185.053Z" style="fill:rgb(89,144,12);"/>
                        </g>
                        <g transform="matrix(-0.153309,0.0533993,-0.0840749,-0.241379,254.166,399.454)">
                            <path d="M176.226,-185.053C176.226,-185.053 197.169,-148.537 216.721,-114.446C237.67,-77.92 226.532,-46.549 203.202,-10.932C184.822,17.127 176.226,55.84 176.226,55.84C176.226,55.84 157.881,27.834 139.501,-0.225C116.171,-35.841 114.782,-77.92 135.73,-114.446C155.283,-148.537 176.226,-185.053 176.226,-185.053Z" style="fill:rgb(89,144,12);"/>
                        </g>
                        <g transform="matrix(-0.0971455,0.171861,-0.296703,-0.167713,381.815,361.439)">
                            <path d="M176.226,-185.053C176.226,-185.053 197.169,-148.537 216.721,-114.446C237.67,-77.92 236.281,-35.841 212.951,-0.225C194.571,27.834 176.226,55.84 176.226,55.84C176.226,55.84 157.881,27.834 139.501,-0.225C116.171,-35.841 114.782,-77.92 135.73,-114.446C155.283,-148.537 176.226,-185.053 176.226,-185.053Z" style="fill:rgb(89,144,12);"/>
                        </g>
                        <g transform="matrix(-0.18303,-0.0386037,0.0703369,-0.333486,365.538,245.941)">
                            <path d="M176.226,-185.053C176.226,-185.053 197.169,-148.537 216.721,-114.446C237.67,-77.92 236.281,-35.841 212.951,-0.225C194.571,27.834 176.226,55.84 176.226,55.84C176.226,55.84 157.881,27.834 139.501,-0.225C116.171,-35.841 114.782,-77.92 135.73,-114.446C155.283,-148.537 176.226,-185.053 176.226,-185.053Z" style="fill:rgb(89,144,12);"/>
                        </g>
                        <g transform="matrix(0.0464084,0.119598,-0.225181,0.0873782,353.971,302.376)">
                            <path d="M173.814,-158.007C173.814,-158.007 197.169,-148.537 216.721,-114.446C237.67,-77.92 236.281,-35.841 212.951,-0.225C194.571,27.834 176.226,55.84 176.226,55.84C176.226,55.84 157.881,27.834 139.501,-0.225C116.171,-35.841 114.782,-77.92 135.73,-114.446C155.283,-148.537 173.814,-158.007 173.814,-158.007Z" style="fill:rgb(89,144,12);"/>
                        </g>
                        <g transform="matrix(0.117474,-0.0857913,0.149419,0.204599,145.459,355.537)">
                            <path d="M176.226,-185.053C176.226,-185.053 197.169,-148.537 216.721,-114.446C237.67,-77.92 236.281,-35.841 212.951,-0.225C194.571,27.834 176.226,55.84 176.226,55.84C176.226,55.84 157.881,27.834 139.501,-0.225C116.171,-35.841 132.153,-65.881 153.102,-102.407C172.654,-136.498 176.226,-185.053 176.226,-185.053Z" style="fill:rgb(89,144,12);"/>
                        </g>
                        <g transform="matrix(-0.13845,-0.0128228,0.0297646,-0.321376,231.607,339.628)">
                            <path d="M176.226,-185.053C176.226,-185.053 197.169,-148.537 216.721,-114.446C237.67,-77.92 236.281,-35.841 212.951,-0.225C194.571,27.834 176.226,55.84 176.226,55.84C176.226,55.84 157.881,27.834 139.501,-0.225C116.171,-35.841 114.782,-77.92 135.73,-114.446C155.283,-148.537 176.226,-185.053 176.226,-185.053Z" style="fill:rgb(89,144,12);"/>
                        </g>
                        <g transform="matrix(0.139034,-0.00155503,0.00360958,0.322731,209.195,325.397)">
                            <path d="M176.226,-185.053C176.226,-185.053 197.169,-148.537 216.721,-114.446C237.67,-77.92 236.281,-35.841 212.951,-0.225C194.571,27.834 176.226,55.84 176.226,55.84C176.226,55.84 157.881,27.834 139.501,-0.225C116.171,-35.841 114.782,-77.92 135.73,-114.446C155.283,-148.537 176.226,-185.053 176.226,-185.053Z" style="fill:rgb(89,144,12);"/>
                        </g>
                        <g transform="matrix(-0.105684,0.127913,-0.222284,-0.183655,141.621,341.801)">
                            <path d="M176.226,-185.053C176.226,-185.053 197.169,-148.537 216.721,-114.446C237.67,-77.92 236.281,-35.841 212.951,-0.225C194.571,27.834 176.226,55.84 176.226,55.84C176.226,55.84 145.166,32.837 139.501,-0.225C135.044,-26.238 139.584,-75.756 156.573,-114.296C172.426,-150.257 176.226,-185.053 176.226,-185.053Z" style="fill:rgb(89,144,12);"/>
                        </g>
                        <g transform="matrix(-0.165468,0.0122961,-0.0213677,-0.287546,240.003,235.472)">
                            <path d="M176.226,-185.053C176.226,-185.053 197.169,-148.537 216.721,-114.446C237.67,-77.92 236.281,-35.841 212.951,-0.225C194.571,27.834 176.226,55.84 176.226,55.84C176.226,55.84 145.166,32.837 139.501,-0.225C135.044,-26.238 139.584,-75.756 156.573,-114.296C172.426,-150.257 176.226,-185.053 176.226,-185.053Z" style="fill:rgb(89,144,12);"/>
                        </g>
                        <g transform="matrix(-0.138504,0.0913658,-0.158773,-0.240687,201.403,367.422)">
                            <path d="M176.226,-185.053C176.226,-185.053 197.169,-148.537 216.721,-114.446C237.67,-77.92 236.281,-35.841 212.951,-0.225C194.571,27.834 176.226,55.84 176.226,55.84C176.226,55.84 145.166,32.837 139.501,-0.225C135.044,-26.238 139.584,-75.756 156.573,-114.296C172.426,-150.257 176.226,-185.053 176.226,-185.053Z" style="fill:rgb(89,144,12);"/>
                        </g>
                        <g transform="matrix(-0.163242,-0.09425,0.170308,-0.294977,306.76,328.028)">
                            <path d="M176.226,-185.053C176.226,-185.053 197.169,-148.537 216.721,-114.446C237.67,-77.92 236.281,-35.841 212.951,-0.225C194.571,27.834 176.226,55.84 176.226,55.84C176.226,55.84 145.166,32.837 139.501,-0.225C135.044,-26.238 139.584,-75.756 156.573,-114.296C172.426,-150.257 176.226,-185.053 176.226,-185.053Z" style="fill:rgb(89,144,12);"/>
                        </g>
                        <g transform="matrix(-0.138504,0.0913658,-0.158773,-0.240687,192.994,254.292)">
                            <path d="M176.226,-185.053C176.226,-185.053 197.169,-148.537 216.721,-114.446C237.67,-77.92 236.281,-35.841 212.951,-0.225C194.571,27.834 176.226,55.84 176.226,55.84C176.226,55.84 145.166,32.837 139.501,-0.225C135.044,-26.238 139.584,-75.756 156.573,-114.296C172.426,-150.257 176.226,-185.053 176.226,-185.053Z" style="fill:rgb(89,144,12);"/>
                        </g>
                        <g transform="matrix(-0.239272,0.157839,-0.160237,-0.242907,296.303,207.134)">
                            <path d="M176.226,-185.053C176.226,-185.053 197.169,-148.537 216.721,-114.446C237.67,-77.92 236.281,-35.841 212.951,-0.225C194.571,27.834 176.226,55.84 176.226,55.84C176.226,55.84 145.166,32.837 139.501,-0.225C135.044,-26.238 139.584,-75.756 156.573,-114.296C172.426,-150.257 176.226,-185.053 176.226,-185.053Z" style="fill:rgb(89,144,12);"/>
                        </g>
                        <g transform="matrix(-0.194282,0.100423,-0.132399,-0.256144,338.292,355.576)">
                            <path d="M176.226,-185.053C176.226,-185.053 197.169,-148.537 216.721,-114.446C237.67,-77.92 236.281,-35.841 212.951,-0.225C194.571,27.834 176.226,55.84 176.226,55.84C176.226,55.84 145.166,32.837 139.501,-0.225C135.044,-26.238 139.584,-75.756 156.573,-114.296C172.426,-150.257 176.226,-185.053 176.226,-185.053Z" style="fill:rgb(89,144,12);"/>
                        </g>
                        <g transform="matrix(-0.20211,0.0661465,-0.0896861,-0.274036,354.456,303.928)">
                            <path d="M176.226,-185.053C176.226,-185.053 197.169,-148.537 216.721,-114.446C237.67,-77.92 236.281,-35.841 212.951,-0.225C194.571,27.834 176.226,55.84 176.226,55.84C176.226,55.84 145.166,32.837 139.501,-0.225C135.044,-26.238 139.584,-75.756 156.573,-114.296C172.426,-150.257 176.226,-185.053 176.226,-185.053Z" style="fill:rgb(89,144,12);"/>
                        </g>
                        <g transform="matrix(-0.138504,0.0913658,-0.158773,-0.240687,344.267,428.821)">
                            <path d="M176.226,-185.053C176.226,-185.053 197.169,-148.537 216.721,-114.446C237.67,-77.92 236.281,-35.841 212.951,-0.225C194.571,27.834 176.226,55.84 176.226,55.84C176.226,55.84 145.166,32.837 139.501,-0.225C135.044,-26.238 139.584,-75.756 156.573,-114.296C172.426,-150.257 176.226,-185.053 176.226,-185.053Z" style="fill:rgb(89,144,12);"/>
                        </g>
                        <g transform="matrix(-0.138504,0.0913658,-0.158773,-0.240687,375.212,402.174)">
                            <path d="M176.226,-185.053C176.226,-185.053 197.169,-148.537 216.721,-114.446C237.67,-77.92 236.281,-35.841 212.951,-0.225C194.571,27.834 176.226,55.84 176.226,55.84C176.226,55.84 145.166,32.837 139.501,-0.225C135.044,-26.238 139.584,-75.756 156.573,-114.296C172.426,-150.257 176.226,-185.053 176.226,-185.053Z" style="fill:rgb(89,144,12);"/>
                        </g>
                        <g transform="matrix(-0.159971,-0.0440493,0.0765475,-0.277992,391.098,284.459)">
                            <path d="M176.226,-185.053C176.226,-185.053 197.169,-148.537 216.721,-114.446C237.67,-77.92 236.281,-35.841 212.951,-0.225C194.571,27.834 176.226,55.84 176.226,55.84C176.226,55.84 145.166,32.837 139.501,-0.225C135.044,-26.238 151.153,-72.588 168.142,-111.128C183.994,-147.089 176.226,-185.053 176.226,-185.053Z" style="fill:rgb(89,144,12);"/>
                        </g>
                    </g>
                    <g transform="matrix(0.362037,0.0075742,-0.00697451,0.333373,724.941,627.818)">
                        <circle cx="140.457" cy="240.474" r="27.919" style="fill:rgb(252,128,11);"/>
                    </g>
                    <g transform="matrix(0.38217,0.0198704,-0.0183898,0.353695,197.728,267.05)">
                        <circle cx="140.457" cy="240.474" r="27.919" style="fill:rgb(252,128,11);"/>
                    </g>
                    <g transform="matrix(0.426924,0.0134653,-0.0135469,0.429511,170.995,316.311)">
                        <circle cx="140.457" cy="240.474" r="27.919" style="fill:rgb(252,128,11);"/>
                    </g>
                    <g transform="matrix(0.446094,0.0222767,-0.0197844,0.396184,127.523,213.498)">
                        <circle cx="140.457" cy="240.474" r="27.919" style="fill:rgb(252,128,11);"/>
                    </g>
                    <g transform="matrix(0.310569,-0.0086322,0.00940344,0.338317,310.119,206.649)">
                        <circle cx="140.457" cy="240.474" r="27.919" style="fill:rgb(252,128,11);"/>
                    </g>
                    <g transform="matrix(0.848547,0,0,0.831095,220.397,223.729)">
                        <circle cx="140.457" cy="240.474" r="27.919" style="fill:rgb(252,128,11);"/>
                    </g>
                    <g transform="matrix(0.365406,-0.0882875,0.0922261,0.381707,222.236,307.768)">
                        <circle cx="140.457" cy="240.474" r="27.919" style="fill:rgb(252,128,11);"/>
                    </g>
                    <g transform="matrix(0.777425,0,0,0.714245,233.859,223.928)">
                        <circle cx="140.457" cy="240.474" r="27.919" style="fill:rgb(252,128,11);"/>
                    </g>
                    <g transform="matrix(0.373856,0,0,0.384451,245.25,219.797)">
                        <circle cx="140.457" cy="240.474" r="27.919" style="fill:rgb(252,128,11);"/>
                    </g>
                    <g transform="matrix(0.42136,0,0,0.403846,136.393,276.07)">
                        <circle cx="140.457" cy="240.474" r="27.919" style="fill:rgb(252,128,11);"/>
                    </g>
                    <g transform="matrix(0.270896,0,0,0.2695,421.883,684.118)">
                        <circle cx="140.457" cy="240.474" r="27.919" style="fill:rgb(252,128,11);"/>
                    </g>
                    <g transform="matrix(0.281421,-0.0317863,0.029941,0.265084,231.843,673.793)">
                        <circle cx="140.457" cy="240.474" r="27.919" style="fill:rgb(252,128,11);"/>
                    </g>
                    <g transform="matrix(0.22599,0.00897991,-0.00852042,0.214427,508.23,680.872)">
                        <circle cx="140.457" cy="240.474" r="27.919" style="fill:rgb(252,128,11);"/>
                    </g>
                </g>
                <g transform="matrix(-0.777425,0,0,0.714245,-160.222,753.294)">
                    <circle cx="140.457" cy="240.474" r="27.919" style="fill:rgb(252,128,11);"/>
                </g>
                <g transform="matrix(-1,0,0,1,-202.147,280.258)">
                    <g transform="matrix(1.15676,0,0,1.02276,-74.3895,-25.4468)">
                        <path d="M292.111,252.081C318.715,262.272 364.025,249.777 378.35,279.698C386.026,295.733 393.739,309.476 398.912,324.187C403.826,338.157 406.449,353 404.576,371.507C403.589,381.251 409.287,414.255 402.879,436.359C398.218,452.439 381.035,458.508 380.079,466.373C377.831,484.864 359.33,487.741 338.649,487.07C321.1,486.5 301.668,479.217 287.906,483.153C261.521,490.698 231.089,484.936 221.905,474.324C196.692,445.192 165.276,390.79 179.222,370.524C191.959,352.017 190.593,326.878 198.635,313.873C208.956,297.181 221.88,292.407 230.642,277.317C241.706,258.261 275.019,245.534 292.111,252.081Z" style="fill:rgb(76,128,0);"/>
                    </g>
                    <g transform="matrix(-0.674831,0,0,0.588986,-99.0258,52.9009)">
                        <path d="M-99.215,909.86C-76.583,923.669 -14.788,934.043 -14.788,934.043C-14.788,945.616 -140.482,935.063 -150.582,935.063L-815.247,935.063C-825.347,935.063 -833.547,925.668 -833.547,914.095L-833.547,872.159C-833.547,860.587 -825.347,851.191 -815.247,851.191C-815.247,851.191 -664.851,972.483 -619.47,898.959C-604.147,874.133 -554.238,889.59 -512.36,894.387C-469.763,899.267 -414.138,857.701 -370.299,891.074C-279.649,960.083 -150.582,851.191 -150.582,851.191C-140.482,851.191 -121.404,896.322 -99.215,909.86Z" style="fill:rgb(78,119,21);"/>
                    </g>
                    <g transform="matrix(1,0,0,1,-0.0549369,-1.01966)">
                        <path d="M230.119,499.515C230.119,499.515 208.443,459.291 204.175,451.37C203.775,450.627 204.052,449.7 204.795,449.3C207.362,447.917 212.932,444.915 215.499,443.532C216.242,443.132 217.169,443.409 217.569,444.152C221.234,450.954 237.772,481.644 243.338,491.974C244.468,494.071 246.659,495.379 249.041,495.379C249.042,495.379 249.042,495.379 249.043,495.379C250.076,495.379 251.067,494.969 251.798,494.238C252.529,493.507 252.939,492.516 252.939,491.483C252.939,479.73 252.939,444.962 252.939,437.247C252.939,436.403 253.623,435.719 254.467,435.719C256.928,435.719 261.741,435.719 264.201,435.719C264.607,435.719 264.995,435.88 265.282,436.166C265.568,436.453 265.729,436.842 265.729,437.247C265.729,445.402 265.729,483.786 265.729,493.261C265.729,493.447 265.862,493.607 266.046,493.64C266.229,493.673 266.41,493.571 266.476,493.396C269.994,484.049 284.883,444.496 287.898,436.486C288.193,435.701 289.066,435.301 289.854,435.59C292.497,436.56 298.138,438.63 300.79,439.603C301.17,439.743 301.48,440.028 301.65,440.396C301.82,440.763 301.838,441.184 301.698,441.564C298.505,450.264 281.871,495.595 281.871,495.595C281.871,495.595 269.417,530.509 268.689,542.718C268.689,542.718 268.689,542.718 268.688,542.718C268.647,542.718 268.613,542.751 268.613,542.793C268.613,544.748 266.486,570.456 268.613,584.31C268.615,584.32 268.642,584.31 268.642,584.31L281.87,664.058L228.956,664.058L242.185,584.31C242.185,584.31 242.212,584.32 242.213,584.31C243.278,575.807 243.323,552.441 242.213,542.718C242.213,542.717 242.213,542.718 242.212,542.718C242.207,542.718 242.203,542.715 242.202,542.71C242.023,542.069 230.119,499.515 230.119,499.515Z" style="fill:rgb(117,78,0);"/>
                    </g>
                    <g transform="matrix(0.549761,0,0,0.515041,254.133,176.181)">
                        <circle cx="140.457" cy="240.474" r="27.919" style="fill:rgb(252,128,11);"/>
                    </g>
                    <g transform="matrix(0.381207,-0.0096614,0.00901385,0.355657,315.903,255.967)">
                        <circle cx="140.457" cy="240.474" r="27.919" style="fill:rgb(252,128,11);"/>
                    </g>
                    <g transform="matrix(0.46946,-0.0115171,0.0106872,0.435633,237.358,349.641)">
                        <circle cx="140.457" cy="240.474" r="27.919" style="fill:rgb(252,128,11);"/>
                    </g>
                    <g transform="matrix(0.502576,-0.00552796,0.00500536,0.455064,147.377,264.705)">
                        <circle cx="140.457" cy="240.474" r="27.919" style="fill:rgb(252,128,11);"/>
                    </g>
                    <g transform="matrix(0.336275,-0.0194874,0.0216396,0.373413,111.389,326.771)">
                        <circle cx="140.457" cy="240.474" r="27.919" style="fill:rgb(252,128,11);"/>
                    </g>
                    <g transform="matrix(0.436151,0.120581,-0.118758,0.429559,131.481,233.532)">
                        <circle cx="140.457" cy="240.474" r="27.919" style="fill:rgb(252,128,11);"/>
                    </g>
                    <g>
                        <g transform="matrix(-0.0350428,0.151634,-0.274711,-0.0634861,154.286,402.656)">
                            <path d="M176.226,-185.053C176.226,-185.053 197.169,-148.537 216.721,-114.446C237.67,-77.92 236.281,-35.841 212.951,-0.225C194.571,27.834 176.226,55.84 176.226,55.84C176.226,55.84 157.881,27.834 139.501,-0.225C116.171,-35.841 114.782,-77.92 135.73,-114.446C155.283,-148.537 176.226,-185.053 176.226,-185.053Z" style="fill:rgb(89,144,12);"/>
                        </g>
                        <g transform="matrix(0.0740046,-0.10052,0.206224,0.151826,257.596,457.912)">
                            <path d="M176.226,-185.053C176.226,-185.053 197.169,-148.537 216.721,-114.446C237.67,-77.92 236.281,-35.841 212.951,-0.225C194.571,27.834 176.226,55.84 176.226,55.84C176.226,55.84 157.881,27.834 139.501,-0.225C116.171,-35.841 114.782,-77.92 135.73,-114.446C155.283,-148.537 176.226,-185.053 176.226,-185.053Z" style="fill:rgb(89,144,12);"/>
                        </g>
                        <g transform="matrix(-0.153309,0.0533993,-0.0840749,-0.241379,254.166,399.454)">
                            <path d="M176.226,-185.053C176.226,-185.053 197.169,-148.537 216.721,-114.446C237.67,-77.92 226.532,-46.549 203.202,-10.932C184.822,17.127 176.226,55.84 176.226,55.84C176.226,55.84 157.881,27.834 139.501,-0.225C116.171,-35.841 114.782,-77.92 135.73,-114.446C155.283,-148.537 176.226,-185.053 176.226,-185.053Z" style="fill:rgb(89,144,12);"/>
                        </g>
                        <g transform="matrix(-0.0971455,0.171861,-0.296703,-0.167713,381.815,361.439)">
                            <path d="M176.226,-185.053C176.226,-185.053 197.169,-148.537 216.721,-114.446C237.67,-77.92 236.281,-35.841 212.951,-0.225C194.571,27.834 176.226,55.84 176.226,55.84C176.226,55.84 157.881,27.834 139.501,-0.225C116.171,-35.841 114.782,-77.92 135.73,-114.446C155.283,-148.537 176.226,-185.053 176.226,-185.053Z" style="fill:rgb(89,144,12);"/>
                        </g>
                        <g transform="matrix(0.0935036,0.162011,-0.295187,0.170366,293.19,243.14)">
                            <path d="M176.226,-185.053C176.226,-185.053 197.169,-148.537 216.721,-114.446C237.67,-77.92 236.281,-35.841 212.951,-0.225C194.571,27.834 176.226,55.84 176.226,55.84C176.226,55.84 157.881,27.834 139.501,-0.225C116.171,-35.841 114.782,-77.92 135.73,-114.446C155.283,-148.537 176.226,-185.053 176.226,-185.053Z" style="fill:rgb(89,144,12);"/>
                        </g>
                        <g transform="matrix(0.0464084,0.119598,-0.225181,0.0873782,385.315,303.738)">
                            <path d="M173.814,-158.007C173.814,-158.007 197.169,-148.537 216.721,-114.446C237.67,-77.92 236.281,-35.841 212.951,-0.225C194.571,27.834 176.226,55.84 176.226,55.84C176.226,55.84 157.881,27.834 139.501,-0.225C116.171,-35.841 114.782,-77.92 135.73,-114.446C155.283,-148.537 173.814,-158.007 173.814,-158.007Z" style="fill:rgb(89,144,12);"/>
                        </g>
                        <g transform="matrix(0.117474,-0.0857913,0.149419,0.204599,145.459,355.537)">
                            <path d="M176.226,-185.053C176.226,-185.053 197.169,-148.537 216.721,-114.446C237.67,-77.92 236.281,-35.841 212.951,-0.225C194.571,27.834 176.226,55.84 176.226,55.84C176.226,55.84 157.881,27.834 139.501,-0.225C116.171,-35.841 132.153,-65.881 153.102,-102.407C172.654,-136.498 176.226,-185.053 176.226,-185.053Z" style="fill:rgb(89,144,12);"/>
                        </g>
                        <g transform="matrix(-0.13845,-0.0128228,0.0297646,-0.321376,231.607,339.628)">
                            <path d="M176.226,-185.053C176.226,-185.053 197.169,-148.537 216.721,-114.446C237.67,-77.92 236.281,-35.841 212.951,-0.225C194.571,27.834 176.226,55.84 176.226,55.84C176.226,55.84 157.881,27.834 139.501,-0.225C116.171,-35.841 114.782,-77.92 135.73,-114.446C155.283,-148.537 176.226,-185.053 176.226,-185.053Z" style="fill:rgb(89,144,12);"/>
                        </g>
                        <g transform="matrix(0.139034,-0.00155503,0.00360958,0.322731,209.195,325.397)">
                            <path d="M176.226,-185.053C176.226,-185.053 197.169,-148.537 216.721,-114.446C237.67,-77.92 236.281,-35.841 212.951,-0.225C194.571,27.834 176.226,55.84 176.226,55.84C176.226,55.84 157.881,27.834 139.501,-0.225C116.171,-35.841 114.782,-77.92 135.73,-114.446C155.283,-148.537 176.226,-185.053 176.226,-185.053Z" style="fill:rgb(89,144,12);"/>
                        </g>
                        <g transform="matrix(-0.105684,0.127913,-0.222284,-0.183655,141.621,341.801)">
                            <path d="M176.226,-185.053C176.226,-185.053 197.169,-148.537 216.721,-114.446C237.67,-77.92 236.281,-35.841 212.951,-0.225C194.571,27.834 176.226,55.84 176.226,55.84C176.226,55.84 145.166,32.837 139.501,-0.225C135.044,-26.238 139.584,-75.756 156.573,-114.296C172.426,-150.257 176.226,-185.053 176.226,-185.053Z" style="fill:rgb(89,144,12);"/>
                        </g>
                        <g transform="matrix(-0.165468,0.0122961,-0.0213677,-0.287546,240.003,235.472)">
                            <path d="M176.226,-185.053C176.226,-185.053 197.169,-148.537 216.721,-114.446C237.67,-77.92 236.281,-35.841 212.951,-0.225C194.571,27.834 176.226,55.84 176.226,55.84C176.226,55.84 145.166,32.837 139.501,-0.225C135.044,-26.238 139.584,-75.756 156.573,-114.296C172.426,-150.257 176.226,-185.053 176.226,-185.053Z" style="fill:rgb(89,144,12);"/>
                        </g>
                        <g transform="matrix(-0.138504,0.0913658,-0.158773,-0.240687,201.403,367.422)">
                            <path d="M176.226,-185.053C176.226,-185.053 197.169,-148.537 216.721,-114.446C237.67,-77.92 236.281,-35.841 212.951,-0.225C194.571,27.834 176.226,55.84 176.226,55.84C176.226,55.84 145.166,32.837 139.501,-0.225C135.044,-26.238 139.584,-75.756 156.573,-114.296C172.426,-150.257 176.226,-185.053 176.226,-185.053Z" style="fill:rgb(89,144,12);"/>
                        </g>
                        <g transform="matrix(-0.163242,-0.09425,0.170308,-0.294977,306.76,328.028)">
                            <path d="M176.226,-185.053C176.226,-185.053 197.169,-148.537 216.721,-114.446C237.67,-77.92 236.281,-35.841 212.951,-0.225C194.571,27.834 176.226,55.84 176.226,55.84C176.226,55.84 145.166,32.837 139.501,-0.225C135.044,-26.238 139.584,-75.756 156.573,-114.296C172.426,-150.257 176.226,-185.053 176.226,-185.053Z" style="fill:rgb(89,144,12);"/>
                        </g>
                        <g transform="matrix(-0.138504,0.0913658,-0.158773,-0.240687,192.994,254.292)">
                            <path d="M176.226,-185.053C176.226,-185.053 197.169,-148.537 216.721,-114.446C237.67,-77.92 236.281,-35.841 212.951,-0.225C194.571,27.834 176.226,55.84 176.226,55.84C176.226,55.84 145.166,32.837 139.501,-0.225C135.044,-26.238 139.584,-75.756 156.573,-114.296C172.426,-150.257 176.226,-185.053 176.226,-185.053Z" style="fill:rgb(89,144,12);"/>
                        </g>
                        <g transform="matrix(-0.239272,0.157839,-0.160237,-0.242907,296.303,207.134)">
                            <path d="M176.226,-185.053C176.226,-185.053 197.169,-148.537 216.721,-114.446C237.67,-77.92 236.281,-35.841 212.951,-0.225C194.571,27.834 176.226,55.84 176.226,55.84C176.226,55.84 145.166,32.837 139.501,-0.225C135.044,-26.238 139.584,-75.756 156.573,-114.296C172.426,-150.257 176.226,-185.053 176.226,-185.053Z" style="fill:rgb(89,144,12);"/>
                        </g>
                        <g transform="matrix(-0.194282,0.100423,-0.132399,-0.256144,338.292,355.576)">
                            <path d="M176.226,-185.053C176.226,-185.053 197.169,-148.537 216.721,-114.446C237.67,-77.92 236.281,-35.841 212.951,-0.225C194.571,27.834 176.226,55.84 176.226,55.84C176.226,55.84 145.166,32.837 139.501,-0.225C135.044,-26.238 139.584,-75.756 156.573,-114.296C172.426,-150.257 176.226,-185.053 176.226,-185.053Z" style="fill:rgb(89,144,12);"/>
                        </g>
                        <g transform="matrix(-0.20211,0.0661465,-0.0896861,-0.274036,354.456,303.928)">
                            <path d="M176.226,-185.053C176.226,-185.053 197.169,-148.537 216.721,-114.446C237.67,-77.92 236.281,-35.841 212.951,-0.225C194.571,27.834 176.226,55.84 176.226,55.84C176.226,55.84 145.166,32.837 139.501,-0.225C135.044,-26.238 139.584,-75.756 156.573,-114.296C172.426,-150.257 176.226,-185.053 176.226,-185.053Z" style="fill:rgb(89,144,12);"/>
                        </g>
                        <g transform="matrix(-0.138504,0.0913658,-0.158773,-0.240687,344.267,428.821)">
                            <path d="M176.226,-185.053C176.226,-185.053 197.169,-148.537 216.721,-114.446C237.67,-77.92 236.281,-35.841 212.951,-0.225C194.571,27.834 176.226,55.84 176.226,55.84C176.226,55.84 145.166,32.837 139.501,-0.225C135.044,-26.238 139.584,-75.756 156.573,-114.296C172.426,-150.257 176.226,-185.053 176.226,-185.053Z" style="fill:rgb(89,144,12);"/>
                        </g>
                        <g transform="matrix(-0.138504,0.0913658,-0.158773,-0.240687,375.212,402.174)">
                            <path d="M176.226,-185.053C176.226,-185.053 197.169,-148.537 216.721,-114.446C237.67,-77.92 236.281,-35.841 212.951,-0.225C194.571,27.834 176.226,55.84 176.226,55.84C176.226,55.84 145.166,32.837 139.501,-0.225C135.044,-26.238 139.584,-75.756 156.573,-114.296C172.426,-150.257 176.226,-185.053 176.226,-185.053Z" style="fill:rgb(89,144,12);"/>
                        </g>
                        <g transform="matrix(-0.159971,-0.0440493,0.0765475,-0.277992,391.098,284.459)">
                            <path d="M176.226,-185.053C176.226,-185.053 197.169,-148.537 216.721,-114.446C237.67,-77.92 236.281,-35.841 212.951,-0.225C194.571,27.834 176.226,55.84 176.226,55.84C176.226,55.84 145.166,32.837 139.501,-0.225C135.044,-26.238 139.584,-75.756 156.573,-114.296C172.426,-150.257 176.226,-185.053 176.226,-185.053Z" style="fill:rgb(89,144,12);"/>
                        </g>
                    </g>
                    <g transform="matrix(0.869899,0,0,0.849475,-34.9622,470.493)">
                        <circle cx="140.457" cy="240.474" r="27.919" style="fill:rgb(252,128,11);"/>
                    </g>
                    <g transform="matrix(0.27544,-0.00163332,0.00160624,0.270873,188.264,603.458)">
                        <circle cx="140.457" cy="240.474" r="27.919" style="fill:rgb(252,128,11);"/>
                    </g>
                    <g transform="matrix(0.507819,0,0,0.510896,202.317,275.499)">
                        <circle cx="140.457" cy="240.474" r="27.919" style="fill:rgb(252,128,11);"/>
                    </g>
                    <g transform="matrix(0.552389,0,0,0.545325,203.079,130.31)">
                        <circle cx="140.457" cy="240.474" r="27.919" style="fill:rgb(252,128,11);"/>
                    </g>
                    <g transform="matrix(0.500123,0.00465473,-0.00491645,0.528243,139.081,154.462)">
                        <circle cx="140.457" cy="240.474" r="27.919" style="fill:rgb(252,128,11);"/>
                    </g>
                    <g transform="matrix(0.801078,0.0134116,-0.0141875,0.847425,4.85618,436.892)">
                        <circle cx="140.457" cy="240.474" r="27.919" style="fill:rgb(252,128,11);"/>
                    </g>
                    <g transform="matrix(0.72612,0,0,0.727345,11.6336,498.06)">
                        <circle cx="140.457" cy="240.474" r="27.919" style="fill:rgb(252,128,11);"/>
                    </g>
                    <g transform="matrix(0.489741,-0.00324282,0.00302273,0.456503,288.717,309.477)">
                        <circle cx="140.457" cy="240.474" r="27.919" style="fill:rgb(252,128,11);"/>
                    </g>
                    <g transform="matrix(0.650341,-0.0740108,0.080762,0.709664,-47.4889,516.083)">
                        <circle cx="140.457" cy="240.474" r="27.919" style="fill:rgb(252,128,11);"/>
                    </g>
                    <g transform="matrix(0.461251,-0.0188493,0.0174587,0.427223,184.734,220.603)">
                        <circle cx="140.457" cy="240.474" r="27.919" style="fill:rgb(252,128,11);"/>
                    </g>
                    <g transform="matrix(0.681121,0,0,0.708343,-9.9842,458.881)">
                        <circle cx="140.457" cy="240.474" r="27.919" style="fill:rgb(252,128,11);"/>
                    </g>
                    <g transform="matrix(0.484485,0.00790819,-0.00703538,0.431013,251.109,257.768)">
                        <circle cx="140.457" cy="240.474" r="27.919" style="fill:rgb(252,128,11);"/>
                    </g>
                    <g transform="matrix(0.346701,0,0,0.331782,166.836,342.692)">
                        <circle cx="140.457" cy="240.474" r="27.919" style="fill:rgb(252,128,11);"/>
                    </g>
                    <g transform="matrix(0.400784,0,0,0.407255,183.163,571.853)">
                        <circle cx="140.457" cy="240.474" r="27.919" style="fill:rgb(252,128,11);"/>
                    </g>
                </g>
                <g transform="matrix(0.191389,-6.93889e-18,-6.93889e-18,0.191389,-209.594,923.359)">
                    <path d="M-188.652,-200.138C-158.045,-285.546 -215.236,63.082 -187.543,208.697C-179.065,253.275 -224.328,290.859 -269.705,290.859L-587.752,290.859C-633.129,290.859 -670.937,244.259 -669.914,208.697C-665.955,71.04 -711.204,-282.486 -675.579,-204.38C-646.109,-139.767 -211.123,-137.433 -188.652,-200.138ZM-512.766,191.697C-512.766,182.192 -520.483,174.475 -529.988,174.475L-621.389,174.475C-630.894,174.475 -638.611,182.192 -638.611,191.697L-638.611,226.14C-638.611,235.645 -630.894,243.362 -621.389,243.362L-529.988,243.362C-520.483,243.362 -512.766,235.645 -512.766,226.14L-512.766,191.697ZM-314.785,-15.214C-314.785,-23.663 -321.644,-30.523 -330.094,-30.523L-472.698,-30.523C-481.147,-30.523 -488.007,-23.663 -488.007,-15.214L-488.007,15.404C-488.007,23.853 -481.147,30.713 -472.698,30.713L-330.094,30.713C-321.644,30.713 -314.785,23.853 -314.785,15.404L-314.785,-15.214ZM-210.419,-117.221C-210.419,-126.348 -217.83,-133.759 -226.957,-133.759L-361.417,-133.759C-370.545,-133.759 -377.955,-126.348 -377.955,-117.221L-377.955,-84.144C-377.955,-75.017 -370.545,-67.606 -361.417,-67.606L-226.957,-67.606C-217.83,-67.606 -210.419,-75.017 -210.419,-84.144L-210.419,-117.221ZM-512.636,70.979C-512.636,55.671 -525.065,43.242 -540.373,43.242L-606.895,43.242C-622.203,43.242 -634.632,55.671 -634.632,70.979L-634.632,126.452C-634.632,141.761 -622.203,154.189 -606.895,154.189L-540.373,154.189C-525.065,154.189 -512.636,141.761 -512.636,126.452L-512.636,70.979ZM-203.341,189.578C-203.341,180.613 -210.62,173.335 -219.585,173.335L-252.071,173.335C-261.036,173.335 -268.315,180.613 -268.315,189.578L-268.315,236.095C-268.315,245.06 -261.036,252.339 -252.071,252.339L-219.585,252.339C-210.62,252.339 -203.341,245.06 -203.341,236.095L-203.341,189.578ZM-294.837,76.283C-294.837,60.997 -307.248,48.586 -322.534,48.586L-446.14,48.586C-461.426,48.586 -473.836,60.997 -473.836,76.283L-473.836,131.677C-473.836,146.963 -461.426,159.374 -446.14,159.374L-322.534,159.374C-307.248,159.374 -294.837,146.963 -294.837,131.677L-294.837,76.283ZM-238.315,18.911C-238.315,12.764 -243.306,7.773 -249.453,7.773L-271.73,7.773C-277.878,7.773 -282.869,12.764 -282.869,18.911L-282.869,134.11C-282.869,140.257 -277.878,145.248 -271.73,145.248L-249.453,145.248C-243.306,145.248 -238.315,140.257 -238.315,134.11L-238.315,18.911ZM-311.437,198.745C-311.437,187.074 -320.912,177.6 -332.583,177.6L-444.854,177.6C-456.524,177.6 -465.999,187.074 -465.999,198.745L-465.999,241.035C-465.999,252.706 -456.524,262.181 -444.854,262.181L-332.583,262.181C-320.912,262.181 -311.437,252.706 -311.437,241.035L-311.437,198.745ZM-439.456,-104.083C-439.456,-114.02 -447.523,-122.086 -457.459,-122.086L-564.665,-122.086C-574.601,-122.086 -582.668,-114.02 -582.668,-104.083L-582.668,-68.078C-582.668,-58.142 -574.601,-50.075 -564.665,-50.075L-457.459,-50.075C-447.523,-50.075 -439.456,-58.142 -439.456,-68.078L-439.456,-104.083ZM-508.275,-8.969C-508.275,-15.168 -513.308,-20.201 -519.507,-20.201L-653.495,-20.201C-659.695,-20.201 -664.728,-15.168 -664.728,-8.969L-664.728,13.496C-664.728,19.695 -659.695,24.728 -653.495,24.728L-519.507,24.728C-513.308,24.728 -508.275,19.695 -508.275,13.496L-508.275,-8.969ZM-619.305,-152.3C-619.305,-159.565 -625.203,-165.462 -632.467,-165.462L-658.791,-165.462C-666.056,-165.462 -671.953,-159.565 -671.953,-152.3L-671.953,-72.929C-671.953,-65.665 -666.056,-59.767 -658.791,-59.767L-632.467,-59.767C-625.203,-59.767 -619.305,-65.665 -619.305,-72.929L-619.305,-152.3ZM-215.047,-34.344C-215.047,-39.524 -219.252,-43.729 -224.432,-43.729L-272.806,-43.729C-277.985,-43.729 -282.19,-39.524 -282.19,-34.344L-282.19,-15.575C-282.19,-10.395 -277.985,-6.19 -272.806,-6.19L-224.432,-6.19C-219.252,-6.19 -215.047,-10.395 -215.047,-15.575L-215.047,-34.344Z" style="fill:rgb(128,128,128);"/>
                </g>
            </g>
            <g transform="matrix(1,0,0,0.754718,-130.968,259.809)">
                <path d="M-554.264,956.319C-576.624,945.683 -576.191,911.17 -636.496,944.076C-696.802,976.982 -723.643,961.044 -702.577,992.188C-681.511,1023.33 -634.482,1011.36 -634.482,1011.36L-583.96,1007.8L-561.47,1004.02L-546.688,1003.87C-546.688,1003.87 -535.513,1007.26 -528.165,1004.17C-520.816,1001.08 -531.903,966.955 -554.264,956.319Z" style="fill:rgb(75,113,20);"/>
            </g>
            <g transform="matrix(0.704608,0,0,0.704608,287.524,-120.611)">
                <path d="M-1522.56,1385.49L-1447.56,1381.16L-1456.69,1603.91L-1476.08,1605.11L-1485.01,1423.06L-1492.64,1423.06L-1507.56,1602.55L-1528.67,1604.6L-1522.56,1385.49Z" style="fill:rgb(8,0,81);"/>
                <g>
                    <path d="M-1490.81,1217.21C-1490.81,1217.21 -1494.95,1232.27 -1502.94,1239.52C-1510.93,1246.77 -1526.53,1243.5 -1526.53,1243.5L-1554.91,1308.27L-1559.93,1321.4C-1559.93,1321.4 -1574.89,1261.7 -1579.65,1250.85C-1581.04,1247.68 -1589.13,1252.9 -1588.48,1256.3C-1585.28,1272.89 -1567.91,1340.44 -1560.48,1350.39C-1553.05,1360.35 -1545.45,1319.04 -1543.91,1316.02C-1542.36,1313.01 -1529.09,1268.8 -1529.09,1268.8L-1501.13,1332.24L-1450.83,1281.59L-1427.04,1260.29L-1419.44,1278.56L-1424.5,1331.96L-1426.49,1332.64C-1426.49,1332.64 -1425.88,1395.14 -1423.94,1407.48C-1423.46,1410.49 -1415.25,1409.77 -1414.83,1406.72C-1413.15,1394.48 -1413.71,1333.5 -1413.71,1333.5L-1416.84,1252.81L-1465.1,1252.39L-1454.3,1238.99L-1457.42,1235.02C-1457.42,1235.02 -1468.27,1224.13 -1476.15,1209.93C-1484.04,1195.72 -1490.81,1217.21 -1490.81,1217.21Z" style="fill:rgb(222,201,201);"/>
                    <path d="M-1507.81,1173.49C-1507.81,1173.49 -1508.41,1220.12 -1479.71,1218.91C-1451,1217.7 -1447.29,1175.48 -1446.78,1169.18C-1446.28,1162.88 -1507.81,1173.49 -1507.81,1173.49Z" style="fill:rgb(222,201,201);"/>
                    <g transform="matrix(1.57564,0,0,1.57564,851.938,-685.457)">
                        <g transform="matrix(0.264792,0,0,0.195361,-1087.48,959.513)">
                            <path d="M-1481.2,1184.92C-1481.2,1184.92 -1501.81,1183.64 -1510.17,1202.28C-1510.17,1202.28 -1487.7,1190.99 -1481.29,1192.43L-1481.2,1184.92Z"/>
                        </g>
                        <g transform="matrix(-0.2676,0,0,0.195361,-1873.88,959.635)">
                            <path d="M-1481.2,1184.92C-1481.2,1184.92 -1501.81,1183.64 -1510.17,1202.28C-1510.17,1202.28 -1487.7,1190.99 -1481.29,1192.43L-1481.2,1184.92Z"/>
                        </g>
                    </g>
                </g>
                <g transform="matrix(1,0,0,1,-0.876324,12.2331)">
                    <path d="M-1523.18,1175.16L-1434.24,1167.76C-1434.24,1167.76 -1446.21,1158.09 -1449.22,1148.2C-1449.22,1148.2 -1452.79,1124.4 -1474.92,1125.57C-1474.92,1125.57 -1496.89,1124.03 -1505.14,1151.31C-1505.14,1151.31 -1507.14,1163.41 -1523.18,1175.16Z" style="fill:rgb(210,201,156);"/>
                </g>
                <g>
                    <path d="M-1458.72,1233.49L-1476.7,1250.15L-1483.72,1269.09L-1487.23,1254.56L-1499.15,1233.92C-1499.15,1233.92 -1517.37,1233.72 -1520.06,1233.76C-1532.2,1233.91 -1540.41,1256.86 -1545.04,1269.99C-1549.68,1283.12 -1560.12,1310.09 -1560.12,1310.09L-1540.59,1321.36L-1528.62,1276.82L-1522.42,1385.64L-1445.87,1384.95L-1429.25,1263.45L-1432.36,1333.52L-1404.74,1331.29C-1404.74,1331.29 -1400.66,1260.78 -1414.47,1234.1C-1417,1229.25 -1422.74,1227.05 -1427.86,1228.96C-1436.91,1232.33 -1452.25,1237.1 -1458.72,1233.49Z" style="fill:rgb(231,216,135);"/>
                    <path d="M-1488.04,1385.33C-1488.04,1385.33 -1489.81,1276.86 -1489.82,1276.8C-1489.82,1276.75 -1493.35,1257.65 -1493.35,1257.65L-1510.45,1252.55L-1499.7,1232.76L-1487.33,1254.4L-1483.43,1268.64L-1477.71,1251.31L-1458.42,1233.45L-1450.89,1254.9L-1475.22,1254.5L-1484.38,1282.03L-1478.2,1385.34L-1488.04,1385.33Z" style="fill:rgb(97,93,38);"/>
                </g>
                <g transform="matrix(0.925608,-0.141087,0.145087,0.951849,-293.246,-154.088)">
                    <path d="M-1601.19,1241.99L-1601.24,1242.03C-1601.24,1242.03 -1612.44,1229.7 -1613.81,1226.53C-1614.55,1224.82 -1611.13,1222.19 -1609.45,1223C-1607.48,1223.96 -1603.55,1231.39 -1601.94,1232.27C-1600.61,1232.99 -1599.71,1229.76 -1599.81,1228.24C-1600.12,1223.78 -1603.86,1209.43 -1603.79,1205.52C-1603.77,1204.04 -1599.96,1203.38 -1599.43,1204.75C-1598.18,1207.98 -1597.33,1221.72 -1596.32,1224.86C-1596,1225.88 -1593.49,1224.65 -1593.37,1223.59C-1592.88,1219.29 -1594.11,1203.14 -1593.37,1199.05C-1593.11,1197.6 -1589.21,1197.6 -1588.94,1199.05C-1588.2,1203.05 -1589.37,1218.95 -1588.94,1223.05C-1588.85,1223.93 -1586.59,1224.52 -1586.34,1223.66C-1585.37,1220.38 -1584.42,1206.62 -1583.16,1203.35C-1582.63,1201.97 -1578.85,1202.56 -1578.78,1204.03C-1578.61,1207.74 -1582.2,1221.35 -1582.15,1225.59C-1582.15,1225.77 -1582.12,1225.94 -1582.06,1226.1C-1581.86,1227.05 -1581.01,1227.74 -1580.02,1227.77C-1579.03,1227.8 -1578.14,1227.17 -1577.87,1226.23C-1577.04,1223.11 -1575.89,1218.61 -1575.15,1217.5C-1574.42,1216.41 -1571.34,1217.15 -1571.48,1218.94C-1571.69,1221.75 -1575.97,1234.08 -1576.54,1235.71C-1576.58,1235.83 -1576.6,1235.95 -1576.6,1236.07C-1576.6,1236.12 -1576.6,1236.16 -1576.6,1236.21C-1576.6,1243.36 -1582.41,1249.16 -1589.58,1249.16C-1594.66,1249.16 -1599.06,1246.24 -1601.19,1241.99Z" style="fill:rgb(255,183,163);"/>
                </g>
                <g>
                    <path d="M-1429.92,1421.37C-1429.92,1421.37 -1422.75,1430.72 -1421.17,1429.44C-1419.59,1428.16 -1419.07,1418.92 -1420.44,1413.68L-1417.92,1412.66L-1414.53,1419.53L-1415.96,1429.44L-1421.48,1435.75L-1427.1,1432.14L-1428.99,1426.36L-1429.92,1421.37Z" style="fill:rgb(255,183,163);"/>
                    <g transform="matrix(-0.5537,0,0,0.541359,-1348.27,1293.49)">
                        <circle cx="140.457" cy="240.474" r="27.919" style="fill:rgb(252,128,11);"/>
                    </g>
                    <path d="M-1414.5,1406.67C-1414.33,1407.62 -1404.59,1426.12 -1415.32,1434.45C-1426.05,1442.77 -1416.51,1429.09 -1416.36,1426.09C-1416.21,1423.1 -1417.81,1417.23 -1419.58,1415.38C-1421.34,1413.54 -1422.94,1410.95 -1423.79,1410.19C-1424.65,1409.42 -1423.65,1403.42 -1423.65,1403.42C-1423.65,1403.42 -1417.64,1395.93 -1416.11,1396.47C-1414.58,1397.02 -1414.66,1405.73 -1414.5,1406.67Z" style="fill:rgb(222,201,201);"/>
                </g>
                <path d="M-1423.54,1427.58L-1423.03,1429.78" style="fill:none;"/>
                <path d="M-1524.73,1603.8L-1524.21,1609.17L-1511.7,1609.61L-1512.43,1594.53L-1524.73,1603.8Z" style="fill:none;"/>
                <path d="M-1555.31,1612.38C-1556.61,1612.77 -1560.36,1614.4 -1560.18,1620.91C-1560.15,1621.91 -1560.03,1623.02 -1559.8,1624.26C-1559.8,1624.26 -1534.39,1630.07 -1530.03,1629.32C-1525.67,1628.57 -1518.18,1621.99 -1518.18,1621.99L-1518.25,1627.12L-1506.61,1623.85L-1506.5,1617.61L-1505.36,1604.7L-1530.05,1607.68L-1533.28,1602.89L-1537.73,1607.94C-1537.73,1607.94 -1553.8,1611.94 -1555.31,1612.38Z" style="fill:rgb(119,34,14);"/>
                <clipPath id="_clip1">
                    <path d="M-1555.31,1612.38C-1556.61,1612.77 -1560.36,1614.4 -1560.18,1620.91C-1560.15,1621.91 -1560.03,1623.02 -1559.8,1624.26C-1559.8,1624.26 -1534.39,1630.07 -1530.03,1629.32C-1525.67,1628.57 -1518.18,1621.99 -1518.18,1621.99L-1518.25,1627.12L-1506.61,1623.85L-1506.5,1617.61L-1505.36,1604.7L-1530.05,1607.68L-1533.28,1602.89L-1537.73,1607.94C-1537.73,1607.94 -1553.8,1611.94 -1555.31,1612.38Z"/>
                </clipPath>
                <g clip-path="url(#_clip1)">
                    <g transform="matrix(4.51768,0,0,4.51768,3674.11,-1236.99)">
                        <path d="M-1159.06,632.734L-1151.3,633.743L-1149.67,632.277C-1149.67,632.277 -1148.56,632.356 -1148.55,632.378C-1148.54,632.399 -1146.21,632.233 -1146.21,632.233L-1147.36,635.485L-1158.85,635.054L-1159.06,632.734Z" style="fill:rgb(64,150,192);"/>
                    </g>
                </g>
                <g transform="matrix(0.790896,0,0,0.790896,-264.476,338.114)">
                    <path d="M-1555.31,1612.38C-1556.81,1612.83 -1561.56,1614.93 -1559.8,1624.26C-1559.8,1624.26 -1534.39,1630.07 -1530.03,1629.32C-1525.67,1628.57 -1518.18,1621.99 -1518.18,1621.99L-1518.25,1627.12L-1506.61,1623.85L-1506.5,1617.61L-1505.36,1604.7L-1530.12,1605.87L-1534.86,1601.03L-1537.73,1607.94C-1537.73,1607.94 -1553.8,1611.94 -1555.31,1612.38Z" style="fill:rgb(119,34,14);"/>
                </g>
            </g>
            <path d="M-554.264,956.319C-576.624,945.683 -571.786,911.524 -629.883,948.188C-692.786,987.886 -732.435,988.402 -707.199,1008.64C-677.869,1032.17 -634.482,1011.36 -634.482,1011.36L-583.96,1007.8L-561.47,1004.02L-546.688,1003.87C-546.688,1003.87 -535.513,1007.26 -528.165,1004.17C-520.816,1001.08 -531.903,966.955 -554.264,956.319Z" style="fill:rgb(62,94,17);"/>
            <g transform="matrix(-0.674831,0,0,0.588986,-831.744,479.54)">
                <path d="M-114.578,913.286C-89.021,910.907 -14.788,934.043 -14.788,934.043C-14.788,945.616 -140.482,935.063 -150.582,935.063C-150.582,935.063 -667.745,942.965 -766.405,937.233C-780.933,936.389 -756.626,904.341 -742.543,900.673C-718.054,894.293 -664.851,972.483 -619.47,898.959C-604.147,874.133 -554.238,889.59 -512.36,894.387C-469.763,899.267 -414.138,857.701 -370.299,891.074C-279.649,960.083 -180.201,850.59 -180.201,850.59C-170.101,850.59 -166.23,918.095 -114.578,913.286Z" style="fill:rgb(78,119,21);"/>
            </g>
        </g>
    </g>
</svg>
